<svg xmlns="http://www.w3.org/2000/svg" xmlns:xlink="http://www.w3.org/1999/xlink" width="500" zoomAndPan="magnify" viewBox="0 0 375 374.999991" height="500" preserveAspectRatio="xMidYMid meet" version="1.0"><defs><clipPath id="96cf008fbd"><path d="M 22.148438 29.347656 L 366.644531 29.347656 L 366.644531 375 L 22.148438 375 Z M 22.148438 29.347656 " clip-rule="nonzero"/></clipPath><clipPath id="245d7f1e36"><path d="M 33.175781 91.578125 L 366.644531 91.578125 L 366.644531 375 L 33.175781 375 Z M 33.175781 91.578125 " clip-rule="nonzero"/></clipPath></defs><g clip-path="url(#96cf008fbd)"><path fill="#ba4f19" d="M 362.402344 163.214844 C 359.195312 158.15625 355.652344 154.058594 354.085938 148.164062 C 352.8125 143.394531 353.90625 138.488281 352.78125 133.820312 C 350.722656 125.214844 345.40625 118.589844 340.507812 111.625 C 336.203125 105.523438 333.074219 98.089844 328.433594 91.984375 C 327.15625 90.289062 325.75 88.699219 324.1875 87.265625 C 316.859375 80.558594 306.953125 75.109375 299.132812 69.058594 C 299.105469 69.035156 299.054688 69.007812 299.027344 68.980469 C 298.847656 68.851562 298.632812 68.648438 298.378906 68.378906 C 298.109375 68.101562 297.777344 67.703125 297.414062 67.285156 C 290.375 59.304688 264.460938 28.945312 181.25 29.386719 C 171.996094 29.441406 162.609375 32.386719 153.796875 35.152344 C 152.949219 35.414062 152.066406 35.65625 151.171875 35.910156 C 133.035156 78.785156 173.652344 141.511719 127.746094 150.125 C 94.261719 159.257812 67.191406 156.8125 33.390625 174.484375 C 29.960938 176.277344 26.222656 177.429688 22.480469 178.039062 C 23.210938 183.941406 24.300781 190.261719 25.71875 196.183594 C 26.449219 199.261719 27.257812 202.234375 28.171875 205 C 29.996094 210.554688 34.089844 214.855469 34.921875 220.726562 C 35.703125 226.148438 33.097656 229.828125 32.183594 234.785156 C 31.402344 238.984375 32.027344 244.09375 33.515625 248.972656 C 34.898438 253.5625 37.007812 257.945312 39.40625 261.152344 C 46.261719 270.308594 58.59375 273.800781 62.242188 285.617188 C 64.925781 294.304688 62.761719 301.761719 68.160156 309.585938 C 73.324219 317.074219 80.910156 319.863281 87.164062 326.019531 C 92.875 331.652344 97.410156 335.746094 105.414062 338.5625 C 123.0625 344.773438 141.128906 349.910156 159.011719 355.308594 C 167.746094 357.917969 174.054688 358.882812 179.164062 366.652344 C 183.28125 372.941406 186.539062 376.019531 195.640625 374.714844 C 202.886719 373.695312 209.613281 369.679688 216.703125 367.019531 C 219.230469 366.078125 221.8125 365.324219 224.472656 364.933594 C 228.957031 364.253906 236.386719 363.890625 240.816406 364.960938 C 242.875 365.429688 244.519531 366.601562 246.316406 367.386719 C 247.257812 367.828125 248.246094 368.113281 249.367188 368.167969 C 258.28125 368.558594 270.484375 363.160156 275.410156 357.367188 C 282.554688 348.890625 286.621094 339.582031 296.1875 333.6875 C 304.007812 328.886719 314.566406 321.691406 320.429688 314.4375 C 324.34375 309.585938 326.269531 303.40625 327.679688 297.144531 C 328.644531 292.894531 329.402344 288.589844 330.363281 284.625 C 332.242188 276.984375 331.042969 268.351562 334.640625 263.054688 C 335.890625 261.203125 337.742188 259.746094 340.53125 258.910156 C 353.097656 255.078125 354.789062 251.269531 355.679688 238.644531 C 356.304688 229.933594 360.945312 222.914062 361.699219 214.203125 C 362.558594 204.242188 363.523438 194.199219 365.6875 184.394531 C 367.484375 176.203125 366.941406 170.359375 362.402344 163.214844 " fill-opacity="1" fill-rule="nonzero"/></g><path fill="#ce631b" d="M 324.914062 141.097656 C 321.605469 130.585938 326.921875 120.308594 323.066406 110.894531 C 320.429688 104.503906 313.992188 93.183594 309.015625 88.097656 C 301.0625 80.015625 298.769531 79.308594 298.402344 69.164062 C 298.613281 69.164062 298.871094 69.136719 299.132812 69.058594 C 299.105469 69.035156 286.046875 54.167969 269.179688 45.820312 C 251.453125 37.003906 223.871094 29.152344 181.25 29.386719 C 171.996094 29.441406 162.609375 32.386719 153.796875 35.152344 C 152.949219 35.410156 152.066406 35.65625 151.171875 35.910156 C 133.035156 78.785156 173.652344 141.511719 127.746094 150.125 C 94.261719 159.257812 67.191406 156.8125 33.390625 174.484375 C 29.960938 176.277344 26.222656 177.429688 22.480469 178.039062 C 22.679688 179.648438 22.902344 181.28125 23.164062 182.933594 C 23.816406 187.339844 24.675781 191.878906 25.71875 196.183594 C 29.785156 198.085938 35.207031 201.242188 37.164062 204.816406 C 39.847656 209.71875 37.425781 216.554688 39.847656 221.535156 C 42.117188 226.175781 48.191406 227.613281 50.09375 232.304688 C 54.160156 242.398438 46.105469 247.824219 55.152344 255.703125 C 61.226562 260.96875 63.832031 262.117188 66.59375 269.96875 C 69.488281 278.183594 70.351562 283.738281 76.945312 289.007812 C 83.304688 294.070312 93.421875 292.867188 97.773438 300.511719 C 101.503906 307.058594 101.085938 313.238281 109.0625 317.621094 C 121.210938 324.296875 142.300781 319.941406 154.789062 315.875 C 162.894531 313.238281 168.1875 309.875 176.296875 315.167969 C 180.441406 317.878906 180.703125 321.636719 184.324219 324.402344 C 190.085938 328.808594 203.730469 327.921875 210.8125 327.191406 C 211.121094 327.160156 211.414062 327.121094 211.695312 327.085938 C 214.492188 326.777344 217.121094 325.863281 219.621094 324.6875 C 227.597656 320.933594 234.296875 313.917969 241.207031 309.011719 C 248.691406 303.691406 256.953125 302.699219 265.609375 299.859375 C 283.882812 293.859375 288.15625 284.574219 291.207031 266.289062 C 292.199219 260.1875 294.78125 255.726562 294.960938 249.886719 C 295.066406 246.3125 292.25 242.140625 294.519531 238.332031 C 296.34375 235.28125 301.820312 234.316406 304.292969 231.964844 C 307.683594 228.734375 319.082031 233.257812 319.570312 229.367188 C 320.324219 223.375 321.136719 218.351562 322.101562 214.050781 C 326.21875 195.632812 331.980469 189.738281 332.035156 173.648438 C 332.058594 160.582031 328.617188 152.859375 324.914062 141.097656 " fill-opacity="1" fill-rule="nonzero"/><path fill="#ad470e" d="M 246.316406 367.386719 C 244.519531 366.601562 242.875 365.429688 240.816406 364.960938 C 236.386719 363.890625 228.957031 364.253906 224.472656 364.933594 C 221.8125 365.324219 219.230469 366.078125 216.703125 367.019531 C 217.589844 361.492188 220.585938 354.867188 221.109375 351.578125 C 222.464844 342.945312 218.449219 340.414062 214.695312 334.46875 C 211.542969 329.460938 208.570312 323.148438 207.785156 316.96875 C 206.820312 309.273438 207.917969 301.972656 199.964844 297.71875 C 199.863281 296.625 199.964844 295.554688 199.964844 294.484375 C 203.433594 293.335938 206.144531 291.511719 209.429688 290.910156 C 209.847656 297.824219 212.140625 311.230469 214.902344 317.386719 C 216.519531 321.011719 219.050781 323.203125 221.109375 327.167969 C 223.246094 331.3125 222.019531 332.226562 225.539062 336.0625 C 228.09375 338.796875 233.28125 340.234375 235.105469 342.449219 C 237.609375 345.476562 237.585938 349.648438 238.863281 352.910156 C 240.269531 356.457031 240.894531 360.5 243.058594 363.8125 C 244.023438 365.300781 245.144531 366.445312 246.316406 367.386719 " fill-opacity="1" fill-rule="nonzero"/><path fill="#ba4f19" d="M 219.621094 324.6875 C 217.121094 325.863281 214.492188 326.777344 211.695312 327.085938 C 211.414062 327.121094 211.121094 327.167969 210.8125 327.191406 C 209.351562 323.90625 208.230469 320.410156 207.785156 316.96875 C 206.820312 309.273438 207.917969 301.972656 199.964844 297.71875 C 199.863281 296.625 199.964844 295.554688 199.964844 294.484375 C 203.433594 293.335938 206.144531 291.511719 209.429688 290.910156 C 209.847656 297.824219 212.140625 311.230469 214.902344 317.386719 C 216.15625 320.175781 217.925781 322.132812 219.621094 324.6875 " fill-opacity="1" fill-rule="nonzero"/><path fill="#963708" d="M 235.890625 96.941406 C 226.164062 103.277344 209.898438 103.410156 202.652344 92.558594 C 197.253906 84.527344 202.179688 73.597656 195.171875 65.433594 C 188.417969 57.558594 176.113281 57.738281 167.199219 52.808594 C 161.929688 49.886719 156.117188 48.792969 150.984375 45.925781 C 150.003906 45.386719 149.199219 44.738281 148.460938 44.046875 C 147.25 48.824219 146.570312 53.765625 146.304688 58.800781 C 149.933594 59.339844 153.558594 59.945312 157.160156 60.765625 C 157.65625 60.894531 158.046875 61.261719 158.226562 61.703125 C 161.800781 70.023438 171.601562 65.511719 178.589844 67.648438 C 185.523438 69.761719 190.476562 77.429688 193.839844 83.691406 C 200.957031 96.992188 207.03125 111.753906 225.984375 108.753906 C 232.890625 107.660156 237.84375 103.433594 238.234375 98.351562 C 238.339844 97.097656 236.960938 96.261719 235.890625 96.941406 " fill-opacity="1" fill-rule="nonzero"/><path fill="#963708" d="M 139.902344 145.378906 C 140.152344 148.082031 140.410156 150.738281 140.347656 153.339844 C 140.101562 163.222656 133.410156 163.851562 130.535156 172.65625 C 127.578125 181.730469 131.4375 193.601562 124.738281 200.199219 C 116.96875 207.855469 94.382812 224.074219 108.398438 235.804688 C 113.296875 230.070312 112.722656 221.035156 116.609375 214.148438 C 119.242188 209.480469 124.402344 207.144531 127.25 202.714844 C 130.625 197.472656 130.089844 191.046875 131.40625 185.351562 C 132.386719 181.113281 133.636719 175.300781 136.714844 172.140625 C 142.382812 166.320312 148.039062 168.453125 149.238281 158.84375 C 149.988281 152.847656 146.027344 149.175781 144.742188 144.371094 C 144.496094 143.453125 144.335938 142.515625 144.207031 141.570312 C 143 142.992188 141.546875 144.25 139.902344 145.378906 " fill-opacity="1" fill-rule="nonzero"/><path fill="#ad470e" d="M 334.640625 263.054688 C 331.042969 268.351562 332.242188 276.984375 330.363281 284.625 C 329.402344 288.589844 328.644531 292.894531 327.679688 297.144531 C 326.246094 289.894531 328.488281 281.234375 327.523438 274.011719 C 326.53125 266.578125 322.621094 263.160156 318.921875 257.003906 C 311.984375 245.398438 321.03125 236.898438 319.464844 224.324219 C 313.132812 220.855469 313.730469 212.066406 313.394531 205.519531 C 313.082031 198.816406 315.179688 191.949219 311.75 182.570312 C 322.699219 180.011719 318.683594 193.730469 318.738281 199.523438 C 318.816406 209.015625 322.046875 213.710938 325.855469 221.769531 C 332.867188 236.660156 321.214844 253.589844 334.640625 263.054688 " fill-opacity="1" fill-rule="nonzero"/><path fill="#ba4f19" d="M 319.570312 229.367188 C 319.703125 227.75 319.675781 226.074219 319.464844 224.324219 C 318.164062 223.621094 317.148438 222.679688 316.363281 221.585938 C 316.339844 221.535156 316.3125 221.507812 316.261719 221.457031 C 313.339844 217.203125 313.65625 210.683594 313.394531 205.519531 C 313.132812 199.730469 314.644531 193.835938 312.871094 186.296875 C 312.664062 185.464844 312.457031 184.628906 312.140625 183.769531 C 312.039062 183.378906 311.90625 182.960938 311.75 182.570312 C 322.699219 180.011719 318.683594 193.730469 318.738281 199.523438 C 318.789062 205.625 320.144531 209.746094 322.101562 214.050781 C 321.136719 218.351562 320.273438 223.371094 319.570312 229.367188 " fill-opacity="1" fill-rule="nonzero"/><path fill="#db8035" d="M 278.824219 89.167969 C 277.964844 84.5 272.804688 80.484375 272.542969 75.449219 C 272.230469 69.214844 276.84375 68.695312 277.9375 63.945312 C 279.140625 58.652344 276.425781 57.0625 274.367188 53.175781 C 273.273438 51.0625 271.238281 48.507812 269.179688 45.820312 C 259.925781 41.230469 248.011719 36.875 232.65625 33.820312 C 218.582031 31.003906 201.636719 29.285156 181.25 29.386719 C 171.996094 29.441406 162.609375 32.386719 153.796875 35.152344 C 152.949219 35.410156 152.066406 35.65625 151.171875 35.910156 C 133.035156 78.785156 173.652344 141.511719 127.746094 150.125 C 94.261719 159.257812 67.191406 156.8125 33.390625 174.484375 C 29.960938 176.277344 26.222656 177.429688 22.480469 178.039062 C 22.679688 179.648438 22.902344 181.28125 23.164062 182.933594 C 26.503906 182.828125 30.152344 182.230469 32.417969 184.105469 C 41.152344 191.382812 40.578125 198.609375 43.8125 208.441406 C 46.601562 216.945312 45.792969 223.671875 52.546875 228.601562 C 60.601562 234.550781 62.164062 242.164062 68.421875 249.050781 C 73.921875 255.078125 78.746094 255.492188 86.226562 256.953125 C 93.394531 258.335938 96.367188 262.796875 102.625 264.988281 C 105.414062 265.949219 108.203125 266.238281 110.914062 266.109375 C 113.46875 265.949219 115.996094 265.378906 118.445312 264.648438 C 122.382812 263.449219 126.136719 261.753906 129.65625 260.34375 C 138.597656 256.796875 146.550781 258.441406 155.882812 258.804688 C 163.390625 259.09375 173.921875 255.230469 181.171875 258.101562 C 191.910156 262.328125 190.375 273.175781 200.671875 261.230469 C 206.691406 254.242188 213.886719 249.078125 218.890625 241.929688 C 221.1875 238.617188 222.074219 235.773438 226.375 233.765625 C 231.039062 231.574219 235.578125 232.800781 239.511719 229.304688 C 244.597656 224.796875 247.621094 213.945312 247.644531 207.816406 C 247.699219 198.242188 247.933594 195.296875 252.835938 186.6875 C 263.261719 168.351562 250.515625 140.914062 265.035156 125.945312 C 272.542969 118.222656 272.699219 112.980469 276.347656 102.496094 C 277.886719 98.089844 279.765625 94.097656 278.824219 89.167969 " fill-opacity="1" fill-rule="nonzero"/><path fill="#ba4f19" d="M 277.914062 160.242188 C 277.46875 150.171875 269.179688 151.660156 267.25 144.253906 C 266.050781 151.140625 270.222656 152.757812 270.847656 156.667969 C 270.976562 157.449219 271.03125 158.207031 271.03125 158.910156 C 271.003906 162.351562 269.648438 165.144531 269.023438 169.109375 C 268.1875 174.535156 270.820312 181.707031 269.050781 186.84375 C 267.40625 191.617188 266.675781 190.105469 263.757812 193.261719 C 258.179688 199.234375 257.683594 199.128906 257.683594 207.554688 C 257.707031 213.03125 257.34375 216.476562 256.535156 222.238281 C 255.078125 232.644531 259.796875 236.140625 249.160156 240.078125 C 244.726562 241.695312 236.152344 240.625 232.761719 244.746094 C 230.101562 247.957031 232.394531 253.195312 229.371094 256.328125 C 225.878906 259.980469 219.804688 258.046875 216.234375 260.917969 C 214.382812 262.378906 212.714844 267.332031 211.542969 269.65625 C 208.046875 276.488281 200.410156 286.609375 191.46875 280.558594 C 189.773438 279.410156 189.433594 275.027344 187.738281 273.855469 C 185.132812 272.082031 182.605469 273.148438 179.996094 272.160156 C 176.632812 270.855469 172.046875 268.324219 168.710938 267.621094 C 159.53125 265.691406 147.722656 269.472656 139.042969 268.613281 C 134.765625 268.195312 130.359375 268.375 126.007812 268.480469 C 123.375 268.535156 120.792969 268.558594 118.242188 268.429688 C 118.890625 252.625 122.90625 234.785156 105.988281 228.601562 C 98.894531 226.019531 91.699219 226.855469 84.871094 223.726562 C 78.824219 220.960938 76.164062 219.210938 68.605469 218.71875 C 68.523438 215.71875 67.769531 211.960938 68.03125 209.066406 C 68.214844 206.902344 70.792969 199.652344 70.296875 198.398438 C 67.117188 190.3125 65.242188 204.609375 65.085938 205.519531 C 64.875 206.980469 64.484375 211.386719 64.433594 213.085938 C 64.300781 216.34375 63.570312 219.578125 64.457031 222.914062 C 67.195312 233.195312 71.367188 228.757812 79.8125 232.148438 C 82.835938 233.375 84.195312 236.53125 87.113281 237.523438 C 90.265625 238.617188 94.59375 236.558594 97.828125 237.496094 C 101.660156 238.617188 107.574219 243.15625 109.324219 246.757812 C 112.347656 253.042969 110.628906 260.058594 110.914062 266.757812 C 111.253906 275.417969 111.980469 275.105469 121.082031 277.453125 C 127.78125 279.175781 134.480469 281.601562 141.78125 280.558594 C 148.765625 279.566406 160.210938 274.609375 166.9375 279.382812 C 169.128906 280.949219 171.890625 281.339844 174.523438 280.816406 C 181.433594 279.4375 184.324219 286.113281 188.496094 290.546875 C 195.429688 297.929688 199.992188 300.640625 207.527344 297.144531 C 210.210938 295.921875 215.21875 289.972656 217.5625 287.914062 C 222.800781 283.296875 219.910156 277.375 222.410156 272.082031 C 225.722656 265.011719 235.105469 262.640625 239.75 257.472656 C 246.578125 249.832031 251.636719 251.996094 260.605469 248.136719 C 269.859375 244.175781 263.628906 234.914062 263.707031 225.5 C 263.730469 220.671875 263.339844 206.015625 266 202.492188 C 268.503906 199.15625 273.195312 200.589844 275.933594 197.382812 C 278.929688 193.835938 277.546875 188.460938 277.234375 184.421875 C 276.609375 176.125 278.25 168.171875 277.914062 160.242188 " fill-opacity="1" fill-rule="nonzero"/><path fill="#ce631b" d="M 119.046875 254.527344 C 118.941406 257.867188 118.65625 261.28125 118.445312 264.648438 C 115.996094 265.378906 113.46875 265.953125 110.914062 266.109375 C 110.730469 259.613281 112.242188 252.832031 109.324219 246.757812 C 107.574219 243.15625 101.660156 238.617188 97.828125 237.496094 C 94.59375 236.558594 90.265625 238.617188 87.113281 237.523438 C 84.195312 236.53125 82.835938 233.375 79.8125 232.148438 C 71.367188 228.757812 67.195312 233.191406 64.457031 222.914062 C 63.570312 219.578125 64.300781 216.34375 64.433594 213.085938 C 64.484375 211.386719 64.875 206.980469 65.085938 205.519531 C 65.1875 204.894531 66.152344 197.644531 67.820312 196.207031 C 68.082031 195.949219 68.367188 195.871094 68.65625 195.972656 C 69.152344 196.15625 69.699219 196.886719 70.273438 198.347656 L 70.296875 198.398438 C 70.792969 199.652344 68.214844 206.902344 68.03125 209.066406 C 67.769531 211.960938 68.523438 215.71875 68.605469 218.71875 C 76.164062 219.210938 78.824219 220.960938 84.871094 223.726562 C 91.699219 226.855469 98.894531 226.019531 105.988281 228.601562 C 118.003906 232.984375 119.464844 243.285156 119.046875 254.527344 " fill-opacity="1" fill-rule="nonzero"/><path fill="#ce631b" d="M 232.683594 97.933594 C 229.347656 92.925781 229.6875 87.707031 224.601562 83.167969 C 215.398438 74.980469 197.570312 80.378906 191.105469 68.613281 C 187.609375 62.226562 192.277344 55.625 184.664062 50.828125 C 180.101562 47.933594 173.21875 49.601562 167.664062 50.148438 C 159.121094 50.988281 152.734375 51.109375 147.375 49.117188 C 146.8125 52.375 146.457031 55.695312 146.289062 59.050781 C 146.683594 59.054688 147.066406 59.054688 147.410156 59.042969 C 157.058594 58.753906 166.179688 56.304688 172.230469 58.050781 C 176.894531 59.410156 179.761719 63.242188 179.605469 72.503906 C 179.398438 83.378906 181.433594 81.550781 190.921875 81.421875 C 199.941406 81.292969 204.839844 84.683594 212.191406 89.011719 C 215.21875 90.8125 217.40625 88.90625 219.359375 92.296875 C 220.640625 94.488281 218.292969 98.792969 219.386719 101.113281 C 222.019531 106.59375 229.007812 104.949219 229.136719 111.441406 C 229.242188 116.320312 222.671875 120.492188 222.828125 127.195312 C 222.984375 133.324219 225.773438 139.480469 230.597656 143.472656 C 230.648438 143.523438 230.675781 143.574219 230.726562 143.601562 C 228.617188 148.0625 230.597656 152.964844 234.246094 155.703125 C 234.167969 148.398438 235.941406 144.542969 234.429688 137.160156 C 232.8125 129.335938 231.769531 124.195312 235.082031 116.738281 C 239.929688 105.886719 239.460938 108.128906 232.683594 97.933594 " fill-opacity="1" fill-rule="nonzero"/><path fill="#ce631b" d="M 175.644531 130.484375 C 173.949219 132.621094 172.464844 134.683594 171.445312 136.273438 C 167.328125 142.6875 168.136719 149.730469 164.355469 155.78125 C 161.460938 160.398438 157.132812 163.449219 154.578125 168.273438 C 151.007812 174.953125 152.234375 175.65625 143.527344 177.558594 C 134.792969 179.464844 128.980469 178.34375 120.585938 176.203125 C 114.613281 174.691406 107.863281 175.96875 102.023438 174.328125 C 93.292969 171.851562 90.972656 164.445312 87.03125 157.804688 C 81.699219 158.652344 76.382812 159.589844 71.039062 160.75 C 71.523438 161.65625 72.089844 162.652344 72.878906 163.816406 C 77.078125 169.96875 85.261719 173.414062 90.660156 179.097656 C 97.097656 185.828125 98.0625 187.652344 107.96875 187.785156 C 116.570312 187.863281 124.3125 185.90625 132.785156 185.984375 C 140.917969 186.089844 150.617188 188.828125 158.097656 184.914062 C 167.25 180.117188 161.59375 173.804688 165.632812 165.277344 C 168.472656 159.222656 170.871094 148.609375 173.429688 142.324219 C 175.929688 136.21875 187.871094 126.597656 187.21875 119.527344 C 183.804688 121.117188 179.242188 125.96875 175.644531 130.484375 " fill-opacity="1" fill-rule="nonzero"/><path fill="#db8035" d="M 120.824219 296.984375 C 127.179688 297.183594 131.414062 301.707031 139.015625 301.421875 C 145.601562 301.175781 152.15625 300.195312 158.984375 300.535156 C 171.570312 301.164062 181.113281 315.949219 193.441406 313.699219 C 199.8125 304.851562 187.65625 301.777344 183.144531 296.785156 C 179.265625 292.496094 180.417969 291.152344 174.957031 288.992188 C 171.792969 287.738281 166.421875 287.136719 163.0625 286.253906 C 152.089844 283.371094 148.863281 291.804688 138.53125 290.808594 C 136.183594 290.585938 114.75 280.085938 120.824219 296.984375 " fill-opacity="1" fill-rule="nonzero"/><path fill="#db8035" d="M 289.636719 173.757812 C 301.433594 181.894531 315.667969 172.035156 310.042969 158.46875 C 308.921875 155.761719 305.773438 153.914062 304.503906 150.871094 C 303.09375 147.5 304.109375 143.734375 302.882812 140.539062 C 300.335938 133.902344 293.097656 128.777344 294.960938 120.484375 C 296.410156 114.050781 302.824219 110.742188 303.878906 102.730469 C 305.058594 93.792969 299.964844 88.113281 292.292969 95.171875 C 286.386719 100.601562 288.34375 110.742188 284.328125 116.933594 C 279.066406 125.054688 269.980469 127.988281 276.328125 140.035156 C 279.917969 146.855469 286.730469 148.457031 288.75 156 C 290.265625 161.671875 286.363281 175.902344 289.636719 173.757812 " fill-opacity="1" fill-rule="nonzero"/><path fill="#ed9e4f" d="M 231.796875 171.097656 C 228.484375 164.378906 222.359375 164.011719 216.695312 160.796875 C 210.429688 157.238281 208.863281 147.367188 200.761719 146.445312 C 184.199219 144.5625 186.089844 171.941406 177.226562 180.839844 C 173.753906 184.328125 167.800781 191.496094 163.242188 193.359375 C 156.59375 196.078125 149.507812 191.09375 142.53125 192.246094 C 127.613281 194.710938 124.742188 204.675781 125.925781 216.363281 C 126.710938 224.109375 123.320312 239.851562 134.136719 244.597656 C 139.179688 235.800781 141.367188 234.554688 149.753906 229.066406 C 154.152344 226.1875 155.371094 222.753906 161.136719 221.472656 C 164.660156 220.683594 169.703125 222.871094 173.007812 221.335938 C 178.574219 218.746094 182.601562 210.203125 187.835938 205.949219 C 197.511719 198.09375 206.042969 201.101562 216.691406 196.222656 C 225.894531 192.003906 236.960938 181.582031 231.796875 171.097656 " fill-opacity="1" fill-rule="nonzero"/><path fill="#ed9e4f" d="M 197.34375 90.742188 C 191.261719 88.75 183.417969 88.574219 178.117188 84.996094 C 172.460938 81.175781 174.921875 76.34375 171.207031 70.613281 C 167.847656 65.425781 154.160156 63.484375 146.175781 65.855469 C 146.230469 70.578125 146.53125 75.328125 146.972656 80.058594 C 152.53125 82.632812 159.132812 81.628906 162.332031 89.90625 C 166.210938 99.933594 164.300781 103.824219 176.734375 105.199219 C 182.808594 103.847656 185.980469 110.464844 191.128906 112.515625 C 194.945312 114.039062 206.980469 117.816406 210.652344 116.558594 C 224.445312 111.847656 204.238281 93.003906 197.34375 90.742188 " fill-opacity="1" fill-rule="nonzero"/><path fill="#ed9e4f" d="M 259.644531 48.363281 C 249.644531 37.640625 228.003906 42.050781 215.804688 38.777344 C 198.886719 34.234375 184.742188 32.941406 168.914062 37.644531 C 166.507812 38.359375 166.605469 41.804688 169.035156 42.425781 C 174.617188 43.855469 181.976562 43.519531 185.234375 44.785156 C 195.144531 48.644531 196.960938 54.347656 204.488281 60.578125 C 213.578125 68.097656 214.363281 61.011719 222.644531 58.316406 C 235.136719 54.253906 239.300781 66.597656 245.710938 73.449219 C 251.390625 79.519531 258.015625 81.332031 261.058594 72.140625 C 262.933594 66.480469 263.917969 52.941406 259.644531 48.363281 " fill-opacity="1" fill-rule="nonzero"/><path fill="#ed9e4f" d="M 96.882812 158.492188 C 99.453125 158.414062 101.421875 157.179688 103.007812 155.304688 C 99.738281 155.839844 96.5 156.335938 93.28125 156.832031 C 94.253906 157.898438 95.414062 158.535156 96.882812 158.492188 " fill-opacity="1" fill-rule="nonzero"/><path fill="#ed9e4f" d="M 37.402344 175.34375 C 45.421875 178.621094 45.914062 180.402344 47.164062 189.5 C 47.851562 194.515625 46.203125 207.351562 54.261719 206.429688 C 61.738281 205.578125 57.75 193.816406 59.613281 188.683594 C 62.007812 182.09375 70.050781 181.027344 71.164062 174.648438 C 72.585938 166.503906 65.597656 165.988281 61.265625 163.183594 C 52.398438 165.683594 43.328125 169.109375 33.757812 174.296875 C 35.125 174.628906 36.460938 174.957031 37.402344 175.34375 " fill-opacity="1" fill-rule="nonzero"/><path fill="#ed9e4f" d="M 151.839844 124.1875 C 151.246094 124.738281 150.730469 125.210938 150.226562 125.675781 C 148.875 138.097656 143.265625 147.210938 127.746094 150.125 C 122.351562 151.59375 117.128906 152.730469 112.003906 153.710938 C 108.109375 157.449219 103.699219 162.523438 112.835938 164.6875 C 124.167969 162.847656 137.363281 179.070312 147.898438 166.832031 C 152.023438 162.039062 151.664062 153.890625 155.089844 148.226562 C 158.457031 142.660156 162.472656 137.664062 165.390625 131.816406 C 171.917969 118.730469 161.710938 115.03125 151.839844 124.1875 " fill-opacity="1" fill-rule="nonzero"/><path fill="#ed9e4f" d="M 83.058594 187.195312 C 92.222656 187.023438 100.191406 194.648438 109.976562 194.636719 C 112.851562 194.632812 115.261719 196.734375 115.523438 199.597656 C 116.042969 205.273438 115.679688 212.871094 113.984375 215.511719 C 106.175781 227.667969 99.761719 213.730469 94.640625 210.816406 C 88.796875 207.488281 80.40625 215.058594 76.441406 209.535156 C 75.371094 208.039062 76.257812 197.898438 77.945312 191.339844 C 78.554688 188.976562 80.621094 187.238281 83.058594 187.195312 " fill-opacity="1" fill-rule="nonzero"/><path fill="#ed9e4f" d="M 246.84375 126.507812 C 244.898438 122.183594 247.121094 116.484375 246.875 111.890625 C 246.566406 106.070312 241.875 100.582031 241.671875 95.429688 C 240.992188 78.546875 256.722656 96.609375 263.707031 87.355469 C 274.765625 96.542969 259.601562 104.113281 256.671875 111.855469 C 255.613281 114.664062 255.105469 137.890625 246.84375 126.507812 " fill-opacity="1" fill-rule="nonzero"/><path fill="#ce631b" d="M 178.507812 238.382812 C 190.871094 240.988281 197.714844 223.347656 206.90625 217.519531 C 209.015625 216.183594 217 210.609375 219.59375 214.148438 C 222.753906 218.464844 214.832031 222.425781 212.667969 225.136719 C 206.226562 233.207031 203.394531 252.988281 190.046875 252.585938 C 184.511719 252.417969 181.417969 247.253906 175.101562 247.242188 C 169.214844 247.234375 164.367188 250.816406 158.230469 249.789062 C 155.433594 237.660156 168.960938 236.371094 178.507812 238.382812 " fill-opacity="1" fill-rule="nonzero"/><g clip-path="url(#245d7f1e36)"><path fill="#ad470e" d="M 362.402344 163.214844 C 359.195312 158.15625 355.652344 154.058594 354.085938 148.164062 C 352.8125 143.394531 353.90625 138.488281 352.78125 133.820312 C 350.722656 125.214844 345.40625 118.589844 340.507812 111.625 C 336.203125 105.523438 333.074219 98.089844 328.433594 91.984375 C 328.148438 93.027344 328.148438 94.308594 328.433594 95.871094 C 329.136719 99.703125 334.433594 103.800781 335.628906 107.816406 C 336.984375 112.304688 337.089844 115.40625 338.914062 119.65625 C 343.085938 129.28125 346.972656 134.472656 348.011719 145.191406 C 348.976562 155.105469 353.226562 161.542969 355.988281 170.464844 C 358.546875 178.628906 357.683594 187.574219 355.988281 195.765625 C 353.929688 205.859375 353.59375 215.847656 351.089844 225.5 C 349.863281 230.21875 351.039062 235.410156 349.8125 239.949219 C 347.648438 247.902344 347.753906 244.25 340.84375 246.339844 C 335.292969 248.007812 334.09375 249.3125 331.144531 253.015625 C 328.097656 256.847656 331.015625 262.066406 322.414062 260.710938 C 320.535156 271.558594 325.699219 282.984375 321.65625 293.625 C 318.269531 302.570312 313.730469 316.890625 304.085938 319.183594 C 297.4375 320.777344 297.179688 318.609375 292.09375 323.410156 C 288.003906 327.269531 288.105469 332.304688 284.847656 336.0625 C 278.539062 343.3125 266.105469 349.230469 258.777344 355.179688 C 253.695312 359.351562 253.875 362.0625 246.160156 360.734375 C 241.261719 359.898438 233.308594 355.59375 230.859375 351.136719 C 228.488281 356.953125 217.015625 357.449219 211.359375 360.367188 C 204.476562 363.917969 197.125 369.027344 190.449219 364.046875 C 189.25 363.160156 188.730469 358.855469 186.933594 357.367188 C 184.898438 355.648438 180.597656 355.855469 178.042969 354.265625 C 169.960938 349.285156 170.847656 348.421875 160.316406 347.589844 C 149.496094 346.753906 138.730469 340.78125 129.03125 336.921875 C 117.875 332.460938 106.457031 326.382812 95.273438 321.636719 C 84.949219 317.253906 75.484375 313.238281 72.019531 300.378906 C 69.957031 292.738281 70.765625 290 66.910156 283.453125 C 64.875 279.957031 63.183594 274.191406 60.964844 271.195312 C 58.175781 267.515625 53.429688 266.734375 50.902344 263.917969 C 47.539062 260.1875 47.277344 254.683594 42.976562 251.421875 C 39.667969 248.972656 35.652344 246.652344 33.515625 248.972656 C 34.898438 253.5625 37.007812 257.945312 39.40625 261.152344 C 46.261719 270.308594 58.59375 273.800781 62.242188 285.617188 C 64.925781 294.304688 62.761719 301.761719 68.160156 309.585938 C 73.324219 317.074219 80.910156 319.863281 87.164062 326.019531 C 92.875 331.652344 97.410156 335.746094 105.414062 338.5625 C 123.0625 344.773438 141.128906 349.910156 159.011719 355.308594 C 167.746094 357.917969 174.054688 358.882812 179.164062 366.652344 C 183.28125 372.941406 186.539062 376.019531 195.640625 374.714844 C 202.886719 373.695312 209.613281 369.679688 216.703125 367.019531 C 219.230469 366.078125 221.8125 365.324219 224.472656 364.933594 C 228.957031 364.253906 236.386719 363.890625 240.816406 364.960938 C 242.875 365.429688 244.519531 366.601562 246.316406 367.386719 C 247.257812 367.828125 248.246094 368.113281 249.367188 368.167969 C 258.28125 368.558594 270.484375 363.160156 275.410156 357.367188 C 282.554688 348.890625 286.621094 339.582031 296.1875 333.6875 C 304.007812 328.886719 314.566406 321.691406 320.429688 314.4375 C 324.34375 309.585938 326.269531 303.40625 327.679688 297.144531 C 328.644531 292.894531 329.402344 288.589844 330.363281 284.625 C 332.242188 276.984375 331.042969 268.351562 334.640625 263.054688 C 335.890625 261.203125 337.742188 259.746094 340.53125 258.910156 C 353.097656 255.078125 354.789062 251.269531 355.679688 238.644531 C 356.304688 229.933594 360.945312 222.914062 361.699219 214.203125 C 362.558594 204.242188 363.523438 194.199219 365.6875 184.394531 C 367.484375 176.203125 366.941406 170.359375 362.402344 163.214844 " fill-opacity="1" fill-rule="nonzero"/></g><path fill="#ce631b" d="M 234.417969 329.835938 C 237.457031 328.769531 240.863281 328.511719 244.113281 329.082031 C 244.273438 336.558594 245.546875 350.769531 256.605469 345.445312 C 263.441406 342.15625 265.085938 330.070312 270.363281 325.394531 C 273.296875 322.792969 288.53125 307.378906 274.308594 307.597656 C 266.164062 307.722656 264.140625 320.375 253.921875 320.066406 C 245.886719 319.828125 235.570312 313.238281 234.417969 329.835938 " fill-opacity="1" fill-rule="nonzero"/><path fill="#ce631b" d="M 165.195312 339.601562 C 170.097656 339.4375 176.472656 339.394531 180.652344 341.453125 C 185.480469 343.835938 186.007812 349.023438 190.046875 351.59375 C 199.578125 357.660156 210.710938 345.539062 205.867188 336.207031 C 196.402344 334.011719 190.695312 342.945312 182.15625 334.652344 C 179.125 331.707031 179.679688 327.875 175.402344 325.386719 C 171.289062 322.992188 166.519531 323.53125 161.785156 323.75 C 161.796875 323.808594 161.8125 326.066406 161.804688 326.132812 C 163.839844 326.363281 165.554688 327.972656 167.722656 328.214844 C 168.28125 331.945312 166.003906 335.191406 163.335938 337.824219 C 164.121094 339.644531 165.308594 340.046875 165.195312 339.601562 " fill-opacity="1" fill-rule="nonzero"/><path fill="#ce631b" d="M 291.214844 289.878906 C 291.738281 297.160156 300.851562 298.386719 305.390625 294.34375 C 310.652344 289.65625 308.222656 281.132812 310.003906 274.941406 C 321.796875 270.371094 305.925781 254.132812 307.035156 247.414062 C 305.578125 246.621094 304.511719 246.4375 302.902344 246.53125 C 298.921875 253.988281 302.617188 262.578125 301.019531 270.542969 C 299.4375 278.429688 294.796875 283.757812 291.214844 289.878906 " fill-opacity="1" fill-rule="nonzero"/><path fill="#ce631b" d="M 331.152344 216.183594 C 336.65625 224.074219 341.144531 223.871094 342.6875 214.40625 C 344.003906 206.355469 346.40625 196.894531 346.238281 189.027344 C 345.902344 173.449219 338.035156 182.070312 337.5625 192.855469 C 337.351562 197.652344 338.289062 199.863281 336.277344 204.445312 C 334.445312 208.605469 329.828125 208.371094 331.152344 216.183594 " fill-opacity="1" fill-rule="nonzero"/><path fill="#ce631b" d="M 181.25 29.386719 C 171.996094 29.441406 162.609375 32.386719 153.796875 35.152344 C 152.949219 35.410156 152.066406 35.65625 151.171875 35.910156 C 150.421875 37.679688 149.757812 39.476562 149.199219 41.308594 C 150.027344 41.1875 150.890625 41.078125 151.816406 40.839844 C 157.65625 39.351562 161.878906 35.777344 167.746094 34.5 C 173.558594 33.25 178.851562 33.351562 184.847656 32.832031 C 193.265625 32.101562 205.050781 30.195312 213.496094 32.726562 C 218.65625 34.292969 221.601562 36.011719 227.652344 35.152344 C 229.242188 34.917969 231.328125 34.8125 232.65625 33.820312 C 218.582031 31.003906 201.636719 29.285156 181.25 29.386719 " fill-opacity="1" fill-rule="nonzero"/><path fill="#ba4f19" d="M 175.644531 130.484375 C 173.949219 132.621094 172.464844 134.683594 171.445312 136.273438 C 167.328125 142.6875 168.136719 149.730469 164.355469 155.78125 C 161.460938 160.398438 157.132812 163.449219 154.578125 168.273438 C 151.007812 174.953125 152.234375 175.65625 143.527344 177.558594 C 134.792969 179.464844 128.980469 178.34375 120.585938 176.203125 C 114.613281 174.691406 107.863281 175.96875 102.023438 174.328125 C 93.292969 171.851562 90.972656 164.445312 87.03125 157.804688 C 85.460938 158.054688 83.886719 158.320312 82.316406 158.585938 C 83.167969 159.871094 83.914062 161.164062 84.480469 162.457031 C 86.070312 166.136719 85.785156 168.847656 88.652344 172.238281 C 91.207031 175.238281 93.527344 176.621094 97.175781 177.898438 C 103.40625 180.0625 110.289062 180.558594 116.703125 180.6875 C 120.246094 180.742188 123.140625 179.4375 126.582031 179.335938 C 130.492188 179.230469 134.324219 180.636719 138.15625 181.082031 C 146.027344 181.996094 149.757812 181.238281 154.996094 175.210938 C 158.648438 171.039062 160.679688 166.789062 163.757812 162.433594 C 166.257812 158.910156 168.683594 153.304688 169.988281 149.183594 C 170.769531 146.628906 170.300781 143.96875 171.160156 141.566406 C 172.464844 137.914062 177.285156 134.683594 176.6875 130.558594 C 176.347656 130.507812 175.980469 130.484375 175.644531 130.484375 " fill-opacity="1" fill-rule="nonzero"/><path fill="#ba4f19" d="M 228.640625 118.484375 C 227.441406 121.640625 227.652344 125.398438 227.757812 128.761719 C 227.9375 133.613281 231.355469 137.210938 230.882812 142.035156 C 230.832031 142.53125 230.753906 143.027344 230.597656 143.472656 C 225.773438 139.480469 222.984375 133.324219 222.828125 127.195312 C 222.671875 120.492188 229.242188 116.320312 229.136719 111.441406 C 229.007812 104.949219 222.019531 106.589844 219.386719 101.113281 C 218.292969 98.792969 220.640625 94.488281 219.359375 92.296875 C 217.40625 88.90625 215.21875 90.8125 212.191406 89.011719 C 204.839844 84.683594 199.941406 81.292969 190.921875 81.421875 C 181.433594 81.550781 179.398438 83.378906 179.605469 72.503906 C 179.761719 63.242188 176.894531 59.410156 172.230469 58.050781 C 175.957031 58.15625 181.71875 64.027344 183.046875 66.921875 C 185.183594 71.589844 183.644531 74.667969 188.886719 77.484375 C 193.632812 80.066406 201.191406 79.464844 206.902344 81.003906 C 209.820312 81.761719 211.382812 83.71875 213.808594 84.734375 C 216.625 85.882812 219.648438 84.421875 222.203125 86.558594 C 227.730469 91.175781 220.457031 97.460938 224.183594 101.765625 C 227.46875 105.523438 233.257812 104.476562 232.109375 111.414062 C 231.664062 114.050781 229.605469 115.980469 228.640625 118.484375 " fill-opacity="1" fill-rule="nonzero"/><path fill="#ba4f19" d="M 119.046875 254.527344 C 118.550781 254.292969 118.003906 253.902344 117.351562 253.355469 C 114.875 251.1875 114.640625 244.851562 113.050781 241.902344 C 108.933594 234.210938 101.113281 231.65625 93.34375 229.957031 C 87.085938 228.574219 81.429688 226.515625 75.070312 225.914062 C 69.984375 225.445312 69.332031 224.871094 67.222656 220.179688 C 65.136719 215.484375 64.066406 213.683594 65.242188 208.101562 C 66.125 203.957031 67.167969 200.226562 67.820312 196.207031 C 67.898438 195.765625 67.976562 195.324219 68.03125 194.878906 C 68.265625 195.296875 68.480469 195.65625 68.65625 195.972656 C 69.6875 197.832031 69.488281 198.375 68.683594 198.453125 C 69.175781 198.476562 69.722656 198.425781 70.273438 198.347656 L 70.296875 198.398438 C 70.792969 199.652344 68.214844 206.902344 68.03125 209.066406 C 67.769531 211.960938 68.523438 215.71875 68.605469 218.71875 C 76.164062 219.210938 78.824219 220.960938 84.871094 223.726562 C 91.699219 226.855469 98.894531 226.019531 105.988281 228.601562 C 118.003906 232.984375 119.464844 243.285156 119.046875 254.527344 " fill-opacity="1" fill-rule="nonzero"/><path fill="#ad470e" d="M 272.492188 163.761719 C 272.492188 161.675781 272.410156 159.773438 271.03125 158.910156 C 271.003906 162.351562 269.648438 165.144531 269.023438 169.109375 C 268.1875 174.535156 270.820312 181.707031 269.050781 186.84375 C 267.40625 191.617188 266.675781 190.105469 263.757812 193.261719 C 258.179688 199.234375 257.683594 199.128906 257.683594 207.554688 C 257.707031 213.03125 257.34375 216.476562 256.535156 222.238281 C 255.078125 232.644531 259.796875 236.140625 249.160156 240.078125 C 244.726562 241.695312 236.152344 240.625 232.761719 244.746094 C 230.101562 247.957031 232.394531 253.195312 229.371094 256.328125 C 225.878906 259.980469 219.804688 258.046875 216.234375 260.917969 C 214.382812 262.378906 212.714844 267.332031 211.542969 269.65625 C 208.046875 276.488281 200.410156 286.609375 191.46875 280.558594 C 189.773438 279.410156 189.433594 275.027344 187.738281 273.855469 C 185.132812 272.082031 182.605469 273.148438 179.996094 272.160156 C 176.632812 270.855469 172.046875 268.324219 168.710938 267.621094 C 159.53125 265.691406 147.722656 269.472656 139.042969 268.613281 C 134.765625 268.195312 130.359375 268.375 126.007812 268.480469 C 131.847656 271.742188 138.730469 270.566406 145.558594 271.246094 C 151.085938 271.820312 156.664062 271.140625 162.0625 271.222656 C 165.972656 271.296875 168.578125 273.097656 172.304688 274.011719 C 176.242188 274.976562 178.433594 275.5 181.71875 277.792969 C 185.078125 280.167969 188.105469 283.558594 192.171875 284.679688 C 196.03125 285.75 201.113281 283.921875 204.972656 283.21875 C 212.871094 281.835938 211.59375 277.585938 214.773438 271.664062 C 217.589844 266.394531 222.308594 266.578125 226.894531 263.554688 C 232.085938 260.160156 232.421875 255.570312 234.953125 250.796875 C 238.574219 243.992188 251.921875 245.945312 256.953125 239.738281 C 260.265625 235.644531 258.671875 225.082031 259.300781 220.046875 C 259.898438 215.066406 258.988281 209.746094 261.332031 205.101562 C 263.730469 200.332031 268.761719 198.425781 270.25 192.972656 C 271.550781 188.175781 271.890625 182.515625 271.683594 177.480469 C 271.5 172.683594 272.464844 168.351562 272.492188 163.761719 " fill-opacity="1" fill-rule="nonzero"/><path fill="#ad470e" d="M 316.261719 221.457031 C 313.339844 217.203125 313.65625 210.683594 313.394531 205.519531 C 313.132812 199.730469 314.644531 193.835938 312.871094 186.296875 C 312.664062 185.464844 312.457031 184.628906 312.140625 183.769531 C 313.496094 184.261719 314.644531 185.359375 315.007812 186.664062 C 315.164062 187.210938 314.929688 187.886719 315.007812 188.4375 C 315.140625 189.402344 315.453125 189.871094 315.816406 190.78125 C 316.679688 193.027344 316.078125 194.75 315.503906 196.914062 C 314.800781 199.496094 316.050781 202.234375 315.6875 204.945312 C 315.324219 207.503906 314.433594 210.421875 315.269531 212.980469 C 315.714844 214.335938 317.746094 219.734375 316.261719 221.457031 " fill-opacity="1" fill-rule="nonzero"/><path fill="#ad470e" d="M 357.761719 279.828125 C 354.503906 284.785156 355.914062 291.175781 353.070312 295.632812 C 348.089844 303.429688 334.300781 297.695312 336.101562 288.566406 C 336.359375 287.234375 336.648438 286.113281 336.882812 285.042969 C 337.480469 282.488281 337.925781 280.375 337.820312 277.039062 C 337.636719 272.8125 338.523438 270.019531 341.808594 267.230469 C 344.988281 264.832031 351.21875 262.664062 356.09375 263.238281 C 358.859375 263.523438 361.152344 264.699219 362.273438 267.203125 C 364.515625 272.183594 360.160156 276.203125 357.761719 279.828125 " fill-opacity="1" fill-rule="nonzero"/><path fill="#ba4f19" d="M 356.25 272.550781 C 355.652344 273.074219 354.246094 273.175781 353.355469 273.90625 C 352.15625 274.898438 351.140625 276.4375 350.570312 277.871094 C 349.210938 281.234375 350.957031 287.105469 348.820312 289.867188 C 344.207031 295.84375 340.453125 287.496094 336.882812 285.042969 C 337.480469 282.488281 337.925781 280.375 337.820312 277.039062 C 337.636719 272.8125 338.523438 270.019531 341.808594 267.230469 C 344.988281 264.832031 351.21875 262.664062 356.09375 263.238281 C 359.484375 265.171875 360.683594 268.636719 356.25 272.550781 " fill-opacity="1" fill-rule="nonzero"/><path fill="#ce631b" d="M 341.355469 281 C 341.984375 282.777344 342.738281 285.160156 345.285156 284.480469 C 345.214844 278.765625 346.121094 274.070312 351.25 271.09375 C 352.570312 270.328125 355.828125 271.289062 355.144531 268.5625 C 354.726562 266.894531 350.835938 266.960938 349.511719 267.273438 C 346.761719 267.921875 346.804688 269.625 344.957031 271.019531 C 344.542969 271.332031 341.808594 272.121094 341.558594 272.546875 C 340.535156 274.285156 341.175781 280.191406 341.355469 281 " fill-opacity="1" fill-rule="nonzero"/><path fill="#5e311d" d="M 103.351562 172.238281 C 103.261719 170.75 103.023438 169.179688 102.070312 168.03125 C 100.136719 165.703125 96.367188 166.273438 93.722656 167.746094 C 86.96875 171.515625 83.425781 179.167969 77.652344 184.316406 C 73.023438 188.445312 62.621094 192.71875 63.332031 200.179688 C 63.78125 204.886719 72.226562 211.144531 73.921875 216.578125 C 75.582031 221.890625 76.796875 228.644531 82.121094 230.25 C 86.082031 231.441406 90.105469 228.921875 93.472656 226.523438 C 98.519531 222.929688 104.074219 218.441406 104.28125 212.246094 C 104.398438 208.792969 102.769531 205.554688 101.941406 202.199219 C 99.53125 192.441406 103.964844 182.273438 103.351562 172.238281 " fill-opacity="1" fill-rule="nonzero"/><path fill="#7a432d" d="M 86.71875 180.839844 C 84.472656 184.441406 82.5 188.523438 78.820312 190.636719 C 76.625 191.894531 74.027344 192.304688 71.816406 193.539062 C 69.605469 194.769531 67.753906 197.394531 68.707031 199.742188 C 75.695312 200.972656 81.628906 206.839844 82.941406 213.816406 C 83.195312 215.171875 83.40625 216.742188 84.578125 217.46875 C 85.503906 218.039062 86.699219 217.847656 87.742188 217.550781 C 90.269531 216.828125 92.644531 215.585938 94.683594 213.925781 C 95.207031 213.5 95.722656 213.023438 95.976562 212.394531 C 96.253906 211.703125 96.167969 210.925781 96.082031 210.183594 C 95.019531 200.738281 95.941406 191.796875 96.441406 182.394531 C 96.953125 172.75 91.738281 172.796875 86.71875 180.839844 " fill-opacity="1" fill-rule="nonzero"/><path fill="#5e311d" d="M 194.203125 283.882812 C 197.3125 281.339844 198.347656 277.0625 198.726562 273.0625 C 199.109375 269.0625 199.046875 264.90625 200.671875 261.230469 C 201.636719 259.046875 203.164062 257.132812 203.972656 254.890625 C 205.453125 250.796875 204.355469 246.273438 203.25 242.0625 C 202.992188 241.078125 202.671875 240.007812 201.816406 239.457031 C 201.15625 239.03125 200.320312 239.015625 199.535156 239.078125 C 197.355469 239.253906 195.21875 239.933594 193.339844 241.046875 C 186.566406 245.0625 184.109375 253.78125 178.109375 258.875 C 175.238281 261.316406 171.695312 262.796875 168.4375 264.6875 C 165.175781 266.578125 162.015625 269.105469 160.761719 272.660156 C 159.507812 276.214844 160.9375 280.90625 164.515625 282.089844 C 166.996094 282.90625 169.699219 281.933594 172.167969 282.824219 C 174.601562 283.707031 175.828125 286.53125 178.328125 287.222656 C 182.648438 288.414062 190.847656 286.628906 194.203125 283.882812 " fill-opacity="1" fill-rule="nonzero"/><path fill="#7a432d" d="M 184.476562 273.542969 C 188.570312 266.265625 192.289062 258.777344 195.613281 251.113281 C 196.328125 249.457031 196.734375 246.992188 195.0625 246.3125 C 190.925781 247.109375 189.3125 251.976562 186.984375 255.488281 C 183.847656 260.222656 170.503906 264.726562 170.445312 270.046875 C 170.371094 276.660156 181.347656 279.101562 184.476562 273.542969 " fill-opacity="1" fill-rule="nonzero"/><path fill="#5e311d" d="M 204.582031 169.589844 C 203.878906 168.710938 202.601562 168.585938 201.667969 167.960938 C 200.449219 167.144531 199.980469 165.613281 199.171875 164.390625 C 196.847656 160.859375 191.972656 160.1875 187.753906 160.425781 C 183.535156 160.667969 179.066406 161.429688 175.265625 159.585938 C 171.03125 157.53125 167.753906 152.378906 163.117188 153.179688 C 159.726562 153.765625 157.796875 157.359375 156.792969 160.648438 C 151.265625 178.734375 160.25 185.660156 178.355469 185.230469 C 180.09375 185.191406 181.851562 185.042969 183.515625 184.53125 C 185.117188 184.039062 186.609375 183.21875 188.234375 182.820312 C 192.640625 181.742188 197.894531 183.75 201.488281 180.980469 C 203.921875 179.101562 204.539062 175.75 204.980469 172.710938 C 205.136719 171.640625 205.257812 170.433594 204.582031 169.589844 " fill-opacity="1" fill-rule="nonzero"/><path fill="#7a432d" d="M 194.117188 164.839844 C 190.5 163.136719 186.277344 164.226562 182.339844 164.90625 C 179.398438 165.410156 175.917969 165.632812 173.226562 164.101562 C 170.527344 162.570312 169.644531 157.84375 166.539062 157.195312 C 162.242188 156.300781 160.351562 160.300781 159.386719 163.878906 C 158.390625 167.585938 158.605469 173.347656 161.804688 176.015625 C 168.320312 181.441406 176.105469 172.710938 182.535156 171.550781 C 185.132812 171.082031 187.863281 171.503906 190.386719 170.738281 C 192.914062 169.976562 195.214844 167.238281 194.117188 164.839844 " fill-opacity="1" fill-rule="nonzero"/><path fill="#5e311d" d="M 271.21875 294.988281 C 271.570312 295.382812 271.984375 295.804688 272.511719 295.832031 C 273.074219 295.867188 273.550781 295.445312 273.957031 295.050781 C 281.472656 287.695312 288.515625 279.855469 295.019531 271.59375 C 295.90625 270.46875 296.832031 269.164062 296.644531 267.742188 C 296.308594 265.160156 292.929688 264.492188 290.328125 264.464844 L 277.566406 264.34375 C 274.699219 264.316406 271.824219 264.757812 269.121094 265.703125 C 250.316406 272.28125 263.535156 286.414062 271.21875 294.988281 " fill-opacity="1" fill-rule="nonzero"/><path fill="#7a432d" d="M 262.375 275.136719 C 261.605469 276.285156 262.851562 277.699219 263.96875 278.515625 L 270.171875 283.042969 C 270.390625 283.199219 270.628906 283.363281 270.898438 283.355469 C 271.226562 283.34375 271.480469 283.082031 271.699219 282.832031 L 283.941406 268.972656 C 284.191406 268.683594 284.453125 268.378906 284.511719 268.003906 C 284.679688 266.921875 283.226562 266.40625 282.136719 266.371094 C 276.050781 266.179688 269.917969 267.992188 264.914062 271.457031 C 263.921875 272.140625 262.867188 273.367188 263.496094 274.394531 L 262.375 275.136719 " fill-opacity="1" fill-rule="nonzero"/><path fill="#5e311d" d="M 196.894531 67.628906 C 195.898438 66.773438 194.414062 66.933594 193.121094 67.140625 L 175.878906 69.890625 C 164.414062 71.722656 170.507812 81.742188 176.65625 86.394531 C 177.921875 87.355469 179.371094 88.214844 180.957031 88.261719 C 183.855469 88.347656 186.117188 85.765625 187.425781 83.175781 C 188.734375 80.589844 189.636719 77.652344 191.824219 75.753906 C 193.226562 74.535156 195.050781 73.855469 196.375 72.550781 C 197.699219 71.25 198.304688 68.835938 196.894531 67.628906 " fill-opacity="1" fill-rule="nonzero"/><path fill="#7a432d" d="M 174.625 77.136719 C 175.273438 78.6875 176.757812 79.964844 178.554688 80.511719 L 184.828125 73.628906 C 185.136719 73.292969 185.460938 72.898438 185.363281 72.476562 C 185.230469 71.917969 184.460938 71.695312 183.8125 71.578125 C 180.996094 71.0625 177.898438 70.582031 175.363281 71.765625 C 172.832031 72.949219 171.84375 76.585938 174.316406 77.863281 L 174.625 77.136719 " fill-opacity="1" fill-rule="nonzero"/><path fill="#5e311d" d="M 273.417969 115.441406 C 274.4375 115.847656 275.484375 116.277344 276.269531 117.046875 C 277.027344 117.789062 277.472656 118.785156 278.070312 119.664062 C 279.472656 121.730469 281.65625 123.113281 283.78125 124.4375 L 289.519531 128.015625 C 291.460938 129.222656 293.785156 130.472656 295.910156 129.632812 C 297.824219 128.875 298.730469 126.722656 299.4375 124.785156 L 303.574219 113.476562 C 304.035156 112.21875 304.5 110.914062 304.433594 109.574219 C 304.289062 106.765625 301.855469 104.605469 299.339844 103.347656 C 290.011719 98.679688 278.828125 101.992188 268.4375 101.078125 C 266.890625 100.941406 265.324219 100.710938 263.800781 101.011719 C 260.09375 101.746094 254.855469 106.75 257.546875 109.695312 C 260.082031 112.464844 269.761719 113.984375 273.417969 115.441406 " fill-opacity="1" fill-rule="nonzero"/><path fill="#7a432d" d="M 282.390625 115.183594 C 283.058594 115.800781 283.617188 116.609375 284.476562 116.902344 C 286.3125 117.527344 287.867188 115.554688 289.183594 114.132812 C 291.402344 111.746094 294.683594 110.390625 297.9375 110.519531 C 298.265625 110.53125 298.609375 110.554688 298.894531 110.398438 C 299.460938 110.082031 299.449219 109.203125 299.039062 108.703125 C 298.625 108.203125 297.96875 107.992188 297.351562 107.804688 L 290.558594 105.746094 C 288.03125 104.976562 285.492188 104.207031 282.875 103.84375 C 280.074219 103.449219 267.496094 101.695312 269.746094 107.453125 C 269.71875 107.386719 275.410156 111.300781 275.796875 111.566406 C 277.890625 113 280.351562 113.65625 282.390625 115.183594 " fill-opacity="1" fill-rule="nonzero"/><path fill="#5e311d" d="M 304.804688 230.039062 C 305.96875 229.460938 306.582031 228.183594 307.113281 226.996094 C 308.730469 223.375 310.347656 219.753906 311.886719 216.097656 C 312.910156 213.667969 313.90625 211.160156 314.042969 208.527344 C 314.203125 205.429688 313.15625 202.414062 312.125 199.488281 C 311.359375 197.316406 310.558594 195.085938 309.050781 193.351562 C 307.457031 191.519531 305.1875 190.386719 302.847656 189.753906 C 300.402344 189.09375 297.546875 189.023438 295.601562 190.644531 C 293.488281 192.398438 293.15625 195.484375 293.261719 198.230469 C 293.457031 203.476562 292.746094 205.589844 289.691406 209.574219 C 287.382812 212.585938 285.988281 213.335938 287.785156 217.023438 C 289.238281 220.015625 292.785156 222.636719 294.785156 225.300781 C 297.261719 228.597656 299.855469 232.515625 304.804688 230.039062 " fill-opacity="1" fill-rule="nonzero"/><path fill="#7a432d" d="M 296.855469 199.0625 C 296.867188 197.660156 296.820312 196.085938 297.792969 195.085938 C 298.242188 194.617188 298.859375 194.351562 299.480469 194.171875 C 302.265625 193.375 305.480469 194.378906 307.320312 196.617188 C 309.164062 198.859375 309.523438 202.210938 308.203125 204.789062 C 306.617188 207.882812 303.128906 209.507812 301.011719 212.261719 C 298.863281 215.050781 293.289062 220.726562 292.628906 213.863281 C 292.21875 209.578125 296.816406 203.964844 296.855469 199.0625 " fill-opacity="1" fill-rule="nonzero"/><path fill="#ce631b" d="M 22.121094 177.640625 C 23.667969 179.488281 26.566406 179.453125 28.828125 178.621094 C 31.09375 177.789062 33.128906 176.339844 35.480469 175.808594 C 37.792969 175.285156 40.21875 175.699219 42.570312 175.402344 C 48.699219 174.625 53.34375 169.25 59.355469 167.835938 C 63.351562 166.894531 67.71875 167.773438 71.515625 166.210938 C 74.757812 164.878906 77.089844 161.957031 80.167969 160.273438 C 84.683594 157.800781 90.15625 158.273438 95.304688 158.425781 C 102.125 158.625 108.964844 158.132812 115.683594 156.964844 C 117.253906 156.691406 118.855469 156.367188 120.199219 155.515625 C 121.386719 154.765625 122.292969 153.648438 123.421875 152.8125 C 128.058594 149.382812 134.699219 151.503906 140.230469 149.886719 C 148.046875 147.601562 151.648438 138.75 153.78125 130.886719 C 154.617188 127.8125 155.394531 124.675781 155.339844 121.492188 C 155.257812 116.707031 153.3125 112.179688 152.273438 107.515625 C 149.917969 96.972656 152.179688 85.773438 149.511719 75.304688 C 148.980469 73.21875 148.253906 71.152344 148.203125 68.996094 C 148.101562 64.480469 150.964844 60.445312 151.808594 56.007812 C 153.101562 49.210938 148.980469 42.472656 151.171875 35.910156 C 148.027344 36.773438 146.535156 39.601562 145.675781 42.75 C 144.8125 45.894531 144.699219 49.234375 143.570312 52.292969 C 142.621094 54.867188 140.960938 57.242188 140.710938 59.972656 C 140.398438 63.378906 142.351562 66.664062 142.179688 70.078125 C 142.085938 72.003906 141.316406 73.835938 141.097656 75.753906 C 140.707031 79.21875 142.113281 82.597656 142.824219 86.011719 C 144.507812 94.101562 142.3125 102.832031 145.195312 110.574219 C 145.933594 112.558594 147.007812 114.46875 147.207031 116.578125 C 147.386719 118.476562 146.839844 120.359375 146.300781 122.183594 L 141.84375 137.316406 C 141.3125 139.125 140.683594 141.070312 139.144531 142.160156 C 137.582031 143.265625 135.503906 143.191406 133.632812 143.59375 C 128.550781 144.699219 124.800781 149.453125 119.671875 150.332031 C 116.222656 150.921875 112.730469 149.648438 109.230469 149.597656 C 103.488281 149.515625 98.210938 152.695312 92.539062 153.582031 C 89.375 154.078125 86.144531 153.851562 82.953125 154.105469 C 78.894531 154.429688 74.898438 155.542969 71.257812 157.363281 C 68.230469 158.875 65.4375 160.875 62.257812 162.019531 C 57.0625 163.894531 51.300781 163.339844 45.945312 164.671875 C 36.992188 166.894531 30.667969 174.164062 22.121094 177.640625 " fill-opacity="1" fill-rule="nonzero"/><path fill="#ad470e" d="M 13.328125 124.039062 C 8.152344 120.539062 16.371094 114.660156 17.648438 111.339844 C 18.257812 109.789062 18.5 108.113281 19.414062 106.773438 C 21.546875 103.605469 25.988281 103.453125 29.765625 102.90625 C 32.414062 102.507812 35 101.75 37.433594 100.683594 C 38.894531 100.042969 40.324219 99.25 41.910156 98.976562 C 42.578125 98.855469 43.214844 98.855469 43.886719 98.945312 C 46.078125 99.191406 48.179688 100.410156 49.425781 102.265625 C 51.039062 104.671875 51.160156 107.992188 49.820312 110.546875 C 48.207031 113.5625 44.769531 115.484375 43.671875 118.710938 C 42.699219 121.511719 43.703125 124.527344 43.945312 127.449219 C 44.191406 130.375 43.125 133.996094 40.265625 134.636719 C 38.378906 135.09375 36.398438 133.964844 35.058594 132.535156 C 33.71875 131.105469 32.777344 129.367188 31.40625 127.9375 C 29.277344 125.714844 26.140625 124.496094 23.066406 124.617188 C 20.296875 124.738281 17.4375 125.898438 14.878906 124.863281 C 14.269531 124.617188 13.753906 124.34375 13.328125 124.039062 C 8.152344 120.539062 13.753906 124.34375 13.328125 124.039062 " fill-opacity="1" fill-rule="nonzero"/><path fill="#ad470e" d="M 34.902344 157.320312 C 35.570312 159.542969 35.019531 162.101562 33.5 163.867188 C 32.675781 164.839844 31.550781 165.570312 30.304688 165.753906 C 29.054688 165.9375 27.6875 165.480469 26.925781 164.476562 C 26.285156 163.625 26.132812 162.496094 25.738281 161.523438 C 25.007812 159.632812 23.394531 158.355469 21.8125 157.015625 C 20.414062 155.859375 19.011719 154.671875 18.25 153.085938 C 14.871094 146.023438 24.976562 139.597656 31.125 140.480469 C 33.347656 140.785156 35.050781 142.09375 35.386719 144.683594 C 35.75 147.574219 33.195312 150.195312 33.46875 153.054688 C 33.621094 154.550781 34.503906 155.859375 34.902344 157.320312 " fill-opacity="1" fill-rule="nonzero"/><path fill="#ad470e" d="M 125.75 102.910156 C 125.414062 103.761719 124.957031 104.613281 124.257812 105.195312 C 122.828125 106.410156 120.605469 106.226562 118.992188 105.316406 C 117.347656 104.402344 116.164062 102.878906 114.945312 101.476562 C 113.757812 100.046875 112.449219 98.585938 110.714844 97.882812 C 106.816406 96.300781 102.585938 98.953125 98.476562 99.773438 C 97.929688 99.863281 97.382812 99.953125 96.863281 99.773438 C 96.378906 99.589844 95.984375 99.195312 95.707031 98.769531 C 95.617188 98.617188 95.527344 98.464844 95.433594 98.28125 C 93.121094 93.5 102.3125 87.804688 106.148438 87.136719 C 109.558594 86.554688 112.964844 88.230469 115.675781 90.332031 C 117.5 91.734375 119.144531 93.378906 120.878906 94.839844 C 121.761719 95.601562 122.707031 96.332031 123.679688 96.941406 C 124.472656 97.457031 125.355469 97.945312 125.871094 98.769531 C 126.632812 99.984375 126.296875 101.570312 125.75 102.910156 " fill-opacity="1" fill-rule="nonzero"/><path fill="#ce631b" d="M 120.878906 94.839844 C 120.421875 96.453125 119.480469 97.824219 117.714844 97.855469 C 115.308594 97.914062 113.605469 94.65625 111.566406 93.652344 C 109.039062 92.402344 105.722656 92.222656 103.5625 94.292969 C 102.863281 94.992188 102.34375 95.84375 101.523438 96.421875 C 100.914062 96.851562 100.183594 97.09375 99.453125 97.304688 C 98.144531 97.703125 96.804688 98.066406 95.433594 98.28125 C 93.121094 93.5 102.3125 87.804688 106.148438 87.136719 C 109.558594 86.554688 112.964844 88.230469 115.675781 90.332031 C 117.5 91.734375 119.144531 93.378906 120.878906 94.839844 " fill-opacity="1" fill-rule="nonzero"/><path fill="#ce631b" d="M 30.761719 159.296875 C 30.214844 160.488281 28.902344 161.429688 27.65625 161.066406 C 26.132812 160.609375 25.648438 158.691406 24.398438 157.746094 C 23.667969 157.199219 22.757812 157.015625 21.8125 157.015625 C 20.414062 155.859375 19.011719 154.671875 18.25 153.085938 C 14.871094 146.023438 24.976562 139.597656 31.125 140.480469 C 30.941406 142.125 30.457031 143.921875 30.484375 145.078125 C 30.546875 148.550781 30.914062 152.023438 31.125 155.460938 C 31.214844 156.769531 31.277344 158.113281 30.761719 159.296875 " fill-opacity="1" fill-rule="nonzero"/><path fill="#ce631b" d="M 39.410156 111.460938 C 38.285156 112.101562 36.976562 112.648438 36.398438 113.808594 C 35.394531 115.726562 36.949219 118.4375 35.578125 120.109375 C 35.242188 120.539062 34.785156 120.8125 34.300781 120.992188 C 29.734375 122.730469 24.894531 116.335938 20.386719 118.253906 C 17.710938 119.378906 16.675781 123.035156 13.90625 123.886719 C 13.722656 123.949219 13.507812 124.007812 13.328125 124.039062 C 8.152344 120.539062 16.371094 114.660156 17.648438 111.339844 C 18.257812 109.789062 18.5 108.113281 19.414062 106.773438 C 21.546875 103.605469 25.988281 103.453125 29.765625 102.90625 C 32.414062 102.507812 35 101.75 37.433594 100.683594 C 38.894531 100.042969 40.324219 99.25 41.910156 98.976562 C 42.578125 98.855469 43.214844 98.855469 43.886719 98.945312 C 46.230469 103.210938 43.398438 109.179688 39.410156 111.460938 " fill-opacity="1" fill-rule="nonzero"/><path fill="#ad470e" d="M 110.367188 7.539062 C 110.183594 8.667969 109.789062 9.761719 109.210938 10.769531 C 108.054688 12.714844 106.226562 14.238281 105.191406 16.25 C 102.511719 21.363281 105.679688 27.425781 106.46875 33.117188 C 106.835938 35.738281 106.5625 38.722656 104.554688 40.457031 C 102.484375 42.253906 99.164062 42.011719 96.914062 40.425781 C 94.660156 38.84375 93.324219 36.253906 92.5 33.605469 C 91.25 29.679688 90.367188 28.796875 87.171875 26.816406 C 84.34375 25.050781 82.335938 24.226562 82.425781 20.144531 C 82.425781 19.570312 82.484375 18.957031 82.578125 18.351562 C 83.367188 12.257812 87.539062 4.28125 92.867188 2.058594 C 97.765625 0.015625 103.304688 1.875 108.601562 1.9375 C 108.964844 1.96875 109.390625 1.96875 109.667969 2.210938 C 109.847656 2.367188 109.941406 2.605469 110.03125 2.851562 C 110.546875 4.34375 110.671875 5.984375 110.367188 7.539062 " fill-opacity="1" fill-rule="nonzero"/><path fill="#ad470e" d="M 129.757812 124.765625 C 128.664062 126.257812 126.929688 127.261719 125.070312 127.230469 C 123.761719 127.203125 122.425781 126.621094 121.632812 125.617188 C 121.328125 125.253906 121.101562 124.828125 120.992188 124.339844 C 120.546875 122.339844 121.8125 115.507812 122.972656 113.679688 C 125.222656 110.179688 126.105469 112.734375 128.511719 115.691406 C 129.089844 116.421875 129.675781 117.195312 130.152344 118.003906 C 130.445312 118.5 130.703125 119.007812 130.882812 119.558594 C 131.433594 121.355469 130.882812 123.273438 129.757812 124.765625 " fill-opacity="1" fill-rule="nonzero"/><path fill="#ad470e" d="M 140.507812 26.394531 C 142.71875 28.367188 144.132812 31.070312 145.125 33.871094 C 145.265625 34.289062 145.394531 34.703125 145.417969 35.136719 C 145.523438 37.140625 143.417969 38.632812 141.40625 38.695312 C 139.417969 38.738281 137.542969 37.832031 135.652344 37.140625 C 133.765625 36.496094 131.550781 36.132812 129.859375 37.175781 C 128.9375 37.730469 128.332031 38.613281 127.707031 39.476562 C 125.503906 42.582031 123.378906 45.742188 121.125 48.816406 C 120.929688 49.085938 120.757812 49.34375 120.507812 49.570312 C 120.203125 49.914062 119.871094 50.195312 119.414062 50.34375 C 118.871094 50.5 118.25 50.351562 117.714844 50.148438 C 115.054688 49.136719 113.039062 46.546875 112.871094 43.722656 C 112.609375 39.714844 115.910156 35.683594 117.351562 32.261719 C 119.292969 27.796875 121.796875 24.695312 126.332031 22.5 C 127.679688 21.847656 129.128906 21.3125 130.617188 21.421875 C 131.015625 21.457031 131.417969 21.539062 131.796875 21.640625 C 132.605469 21.835938 133.390625 22.214844 134.128906 22.554688 C 136.375 23.628906 138.6875 24.71875 140.507812 26.394531 " fill-opacity="1" fill-rule="nonzero"/><path fill="#ce631b" d="M 131.796875 21.640625 C 132.609375 22.53125 133.257812 23.535156 133.664062 24.652344 C 134.5 26.914062 134.207031 29.6875 132.542969 31.398438 C 131.777344 32.195312 130.78125 32.734375 129.863281 33.332031 C 125.785156 36.03125 123.566406 40.011719 122.117188 44.585938 C 121.636719 46.058594 121.226562 47.9375 120.507812 49.570312 C 120.203125 49.914062 119.871094 50.195312 119.414062 50.34375 C 118.871094 50.5 118.25 50.351562 117.714844 50.148438 C 115.054688 49.136719 113.039062 46.546875 112.871094 43.722656 C 112.609375 39.714844 115.910156 35.683594 117.351562 32.261719 C 119.292969 27.796875 121.796875 24.695312 126.332031 22.5 C 127.679688 21.847656 129.128906 21.3125 130.617188 21.421875 C 131.015625 21.457031 131.417969 21.539062 131.796875 21.640625 " fill-opacity="1" fill-rule="nonzero"/><path fill="#ce631b" d="M 130.152344 118.003906 C 129.941406 118.371094 129.667969 118.734375 129.394531 119.101562 C 127.628906 121.355469 125.34375 123.128906 122.972656 124.765625 C 122.519531 125.078125 122.089844 125.375 121.632812 125.617188 C 121.328125 125.253906 121.101562 124.828125 120.992188 124.339844 C 120.546875 122.339844 121.8125 115.507812 122.972656 113.679688 C 125.222656 110.179688 126.105469 112.734375 128.511719 115.691406 C 129.089844 116.421875 129.695312 117.183594 130.152344 118.003906 " fill-opacity="1" fill-rule="nonzero"/><path fill="#ce631b" d="M 110.367188 7.539062 C 106.773438 10.613281 103.863281 14.507812 101.964844 18.867188 C 98.753906 26.242188 95.238281 24.898438 89.425781 21.210938 C 87.601562 20.054688 84.859375 19.414062 82.578125 18.351562 C 83.367188 12.257812 87.539062 4.28125 92.867188 2.058594 C 97.765625 0.015625 103.304688 1.875 108.601562 1.9375 C 108.964844 1.96875 109.390625 1.96875 109.667969 2.210938 C 109.847656 2.367188 109.941406 2.605469 110.03125 2.851562 C 110.546875 4.34375 110.671875 5.984375 110.367188 7.539062 " fill-opacity="1" fill-rule="nonzero"/></svg>