<svg xmlns="http://www.w3.org/2000/svg" xmlns:xlink="http://www.w3.org/1999/xlink" width="500" zoomAndPan="magnify" viewBox="0 0 375 374.999991" height="500" preserveAspectRatio="xMidYMid meet" version="1.0"><defs><clipPath id="2dc2d31b52"><path d="M 122 41.953125 L 252 41.953125 L 252 332.953125 L 122 332.953125 Z M 122 41.953125 " clip-rule="nonzero"/></clipPath></defs><path fill="#224c8d" d="M 118.316406 279.214844 C 116.246094 279.214844 114.203125 278.515625 112.574219 277.21875 L 7.714844 194.742188 C 5.457031 192.972656 4.167969 190.316406 4.167969 187.453125 C 4.167969 184.589844 5.457031 181.933594 7.707031 180.148438 L 112.574219 97.6875 C 114.203125 96.390625 116.246094 95.691406 118.316406 95.691406 C 121.179688 95.691406 123.855469 96.972656 125.609375 99.234375 C 127.144531 101.179688 127.839844 103.617188 127.539062 106.066406 C 127.257812 108.535156 126.007812 110.734375 124.058594 112.269531 L 28.488281 187.453125 L 124.058594 262.621094 C 126.007812 264.171875 127.257812 266.371094 127.539062 268.824219 C 127.839844 271.289062 127.144531 273.710938 125.609375 275.671875 C 123.855469 277.917969 121.179688 279.214844 118.316406 279.214844 " fill-opacity="1" fill-rule="nonzero"/><path fill="#6db5e7" d="M 118.316406 91.738281 C 115.359375 91.738281 112.464844 92.734375 110.136719 94.570312 L 5.265625 177.046875 C 2.046875 179.59375 0.210938 183.371094 0.210938 187.453125 C 0.210938 191.535156 2.058594 195.328125 5.265625 197.859375 L 110.136719 280.335938 C 112.449219 282.15625 115.359375 283.167969 118.316406 283.167969 C 122.414062 283.167969 126.210938 281.316406 128.726562 278.105469 C 130.925781 275.339844 131.890625 271.875 131.480469 268.363281 C 131.054688 264.851562 129.296875 261.707031 126.511719 259.523438 L 34.882812 187.453125 L 126.511719 115.382812 C 129.296875 113.183594 131.054688 110.054688 131.480469 106.542969 C 131.890625 103.03125 130.925781 99.566406 128.726562 96.785156 C 126.210938 93.574219 122.398438 91.738281 118.316406 91.738281 Z M 118.316406 99.648438 C 119.898438 99.648438 121.464844 100.34375 122.511719 101.671875 C 124.34375 103.996094 123.933594 107.347656 121.625 109.167969 L 22.082031 187.453125 L 121.625 265.738281 C 123.933594 267.558594 124.34375 270.910156 122.511719 273.21875 C 121.464844 274.5625 119.898438 275.257812 118.316406 275.257812 C 117.164062 275.257812 116.007812 274.894531 115.027344 274.121094 L 10.152344 191.644531 C 8.875 190.632812 8.121094 189.082031 8.121094 187.453125 C 8.121094 185.808594 8.875 184.273438 10.152344 183.261719 L 115.027344 100.785156 C 115.992188 100.011719 117.164062 99.648438 118.316406 99.648438 " fill-opacity="1" fill-rule="nonzero"/><path fill="#224c8d" d="M 256.683594 279.214844 C 253.820312 279.214844 251.160156 277.917969 249.375 275.671875 C 246.210938 271.652344 246.90625 265.800781 250.9375 262.621094 L 346.527344 187.453125 L 250.9375 112.269531 C 246.90625 109.105469 246.210938 103.253906 249.375 99.234375 C 251.160156 96.972656 253.820312 95.691406 256.683594 95.691406 C 258.753906 95.691406 260.796875 96.390625 262.425781 97.6875 L 367.296875 180.144531 C 369.542969 181.933594 370.824219 184.589844 370.824219 187.453125 C 370.824219 190.316406 369.542969 192.972656 367.28125 194.742188 L 262.425781 277.21875 C 260.796875 278.515625 258.753906 279.214844 256.683594 279.214844 " fill-opacity="1" fill-rule="nonzero"/><path fill="#6db5e7" d="M 256.683594 91.738281 C 252.601562 91.738281 248.804688 93.574219 246.273438 96.785156 C 241.746094 102.527344 242.746094 110.859375 248.488281 115.382812 L 340.117188 187.453125 L 248.488281 259.523438 C 242.746094 264.03125 241.746094 272.382812 246.273438 278.105469 C 248.804688 281.316406 252.601562 283.167969 256.683594 283.167969 C 259.640625 283.167969 262.535156 282.15625 264.859375 280.335938 L 369.734375 197.859375 C 372.945312 195.328125 374.78125 191.535156 374.78125 187.453125 C 374.78125 183.371094 372.945312 179.59375 369.75 177.046875 L 264.878906 94.570312 C 262.550781 92.734375 259.640625 91.738281 256.683594 91.738281 Z M 256.683594 99.648438 C 257.835938 99.648438 259.007812 100.011719 259.972656 100.785156 L 364.84375 183.261719 C 366.128906 184.273438 366.871094 185.808594 366.871094 187.453125 C 366.871094 189.082031 366.128906 190.632812 364.84375 191.644531 L 259.972656 274.121094 C 259.007812 274.894531 257.835938 275.257812 256.683594 275.257812 C 255.101562 275.257812 253.535156 274.5625 252.488281 273.21875 C 250.671875 270.910156 251.066406 267.558594 253.375 265.738281 L 352.917969 187.453125 L 253.375 109.167969 C 251.066406 107.347656 250.671875 103.996094 252.488281 101.671875 C 253.535156 100.34375 255.117188 99.648438 256.683594 99.648438 " fill-opacity="1" fill-rule="nonzero"/><path fill="#224c8d" d="M 135.386719 328.984375 C 134.234375 328.984375 133.109375 328.761719 132.035156 328.351562 C 129.722656 327.449219 127.890625 325.710938 126.890625 323.449219 C 125.878906 321.171875 125.832031 318.65625 126.71875 316.347656 L 229.140625 51.851562 C 230.515625 48.3125 233.996094 45.921875 237.792969 45.921875 C 238.949219 45.921875 240.085938 46.144531 241.164062 46.554688 C 245.925781 48.40625 248.3125 53.796875 246.460938 58.574219 L 144.058594 323.054688 C 142.679688 326.59375 139.183594 328.984375 135.386719 328.984375 " fill-opacity="1" fill-rule="nonzero"/><g clip-path="url(#2dc2d31b52)"><path fill="#6db5e7" d="M 237.792969 41.96875 C 232.367188 41.96875 227.398438 45.386719 225.453125 50.429688 L 123.03125 314.90625 C 121.765625 318.214844 121.847656 321.804688 123.269531 325.046875 C 124.710938 328.273438 127.304688 330.769531 130.609375 332.035156 C 132.144531 332.636719 133.742188 332.9375 135.386719 332.9375 C 140.8125 332.9375 145.78125 329.535156 147.742188 324.476562 L 250.148438 60 C 252.789062 53.183594 249.390625 45.496094 242.570312 42.871094 C 241.050781 42.269531 239.4375 41.96875 237.792969 41.96875 Z M 237.792969 49.875 C 238.441406 49.875 239.089844 50.003906 239.722656 50.242188 C 242.476562 51.300781 243.835938 54.382812 242.777344 57.136719 L 140.355469 321.613281 C 139.546875 323.734375 137.523438 325.03125 135.386719 325.03125 C 134.738281 325.03125 134.089844 324.917969 133.457031 324.664062 C 130.703125 323.605469 129.34375 320.507812 130.421875 317.769531 L 232.824219 53.292969 C 233.648438 51.171875 235.65625 49.875 237.792969 49.875 " fill-opacity="1" fill-rule="nonzero"/></g></svg>