<svg xmlns="http://www.w3.org/2000/svg" xmlns:xlink="http://www.w3.org/1999/xlink" width="500" zoomAndPan="magnify" viewBox="0 0 375 374.999991" height="500" preserveAspectRatio="xMidYMid meet" version="1.0"><defs><clipPath id="fd1990feb1"><path d="M 220 162 L 374 162 L 374 369.375 L 220 369.375 Z M 220 162 " clip-rule="nonzero"/></clipPath></defs><g clip-path="url(#fd1990feb1)"><path fill="#e69a1e" d="M 230.222656 195.59375 L 250.042969 164.328125 C 257.082031 163.058594 264.0625 161.097656 271.199219 162.640625 C 280.71875 164.699219 289.984375 167.707031 299.402344 170.164062 C 307.9375 172.386719 319.972656 174.058594 328.410156 170.808594 C 327.652344 175.992188 317.683594 179.710938 313.019531 179.851562 C 323.464844 179.550781 339.589844 194.207031 346.871094 200.558594 C 359.125 211.242188 367.820312 223.066406 371.144531 239.0625 C 367.925781 235.359375 361.730469 232.828125 356.703125 233.269531 C 365.621094 232.480469 371.476562 252.933594 372.398438 258.945312 C 374.800781 274.621094 371.238281 293.960938 360.488281 306.171875 C 338.65625 330.96875 301.988281 331.695312 271.890625 337.292969 C 261.015625 339.308594 249.566406 341.636719 239.917969 347.367188 C 230.492188 352.972656 228.625 361.75 221.847656 369.4375 C 215.953125 354.542969 227.878906 333.054688 239.511719 324.03125 C 255.65625 311.507812 272.859375 310.40625 291.929688 306.386719 C 303.195312 304.015625 316.128906 302.636719 325.757812 295.800781 C 333.367188 290.402344 334.226562 280.9375 330.289062 272.976562 C 328.558594 269.484375 325.511719 265.742188 322.488281 263.273438 C 319.957031 261.210938 309.617188 259.277344 308.59375 257.675781 C 313.039062 264.609375 314.136719 277.597656 306.488281 282.863281 C 306.835938 259.632812 271.011719 263.558594 264.851562 246.695312 C 265.300781 251.054688 264.777344 256.65625 262.210938 260.226562 C 259.464844 255.804688 260.039062 249.425781 257.417969 244.597656 C 252.992188 236.4375 245.351562 230.929688 240.828125 222.609375 C 238.835938 218.941406 227.769531 199.464844 230.222656 195.59375 " fill-opacity="1" fill-rule="nonzero"/></g><path fill="#e7cb22" d="M 239.375 171.167969 C 239.972656 170.78125 240.609375 170.472656 241.285156 170.234375 C 248.199219 167.847656 257.609375 172.800781 264.300781 174.542969 C 275.851562 177.550781 286.796875 177.96875 298.625 177.699219 C 299.527344 177.679688 296.609375 182.503906 296.152344 182.898438 C 294.695312 184.144531 291.996094 184.527344 290.171875 184.738281 C 307.199219 187.714844 319.773438 192.785156 334.546875 201.996094 C 344.851562 208.421875 350.265625 216.65625 358.511719 225.230469 C 351.28125 224.347656 345.667969 223.699219 338.917969 226.402344 C 345.160156 223.902344 357.453125 244.457031 359.464844 248.699219 C 370.453125 271.890625 361.394531 308.351562 329.738281 305.027344 C 343.949219 302.671875 346.417969 286.296875 343.578125 274.882812 C 341.328125 265.832031 335.203125 257.867188 327.261719 253.015625 C 317.605469 247.117188 308.78125 249.632812 298.710938 246.785156 C 301.066406 248.585938 302.546875 251.363281 303.757812 254.019531 C 304.734375 256.167969 304.828125 262.828125 305.734375 263.980469 C 297.292969 253.234375 286.4375 253.644531 275.636719 246.628906 C 267.015625 241.027344 259.679688 231.183594 257.851562 222.421875 C 256.722656 226.453125 256.828125 231.765625 259.402344 235.246094 C 253.050781 230.441406 248.5 223.191406 244.742188 216.058594 C 239.09375 205.34375 224.015625 180.9375 239.375 171.167969 " fill-opacity="1" fill-rule="nonzero"/><path fill="#ffffff" d="M 240.402344 175.117188 C 240.402344 175.117188 286.8125 175.148438 316.988281 228.675781 C 316.988281 228.675781 271.324219 233.828125 234.8125 183.933594 L 240.402344 175.117188 " fill-opacity="1" fill-rule="nonzero"/><path fill="#6a1b1f" d="M 188.667969 93.460938 C 188.667969 93.460938 223.355469 89.710938 229.269531 89.925781 L 275.523438 135.589844 L 272.875 139.773438 L 227.914062 111.269531 L 209.574219 117.816406 L 188.667969 93.460938 " fill-opacity="1" fill-rule="nonzero"/><path fill="#82242a" d="M 229.160156 197.273438 L 251.109375 162.640625 L 235.1875 152.550781 L 213.230469 187.183594 L 229.160156 197.273438 " fill-opacity="1" fill-rule="nonzero"/><path fill="#3e1113" d="M 216.878906 191.085938 L 240.5 153.824219 L 226.6875 145.0625 L 203.0625 182.324219 L 216.878906 191.085938 " fill-opacity="1" fill-rule="nonzero"/><path fill="#cfd4d5" d="M 2.046875 36.734375 C 2.046875 36.734375 2.320312 33.125 3.960938 30.253906 C 5.855469 27.542969 9.007812 25.757812 9.007812 25.757812 C 15.796875 20.46875 159.273438 5.675781 230.601562 147.542969 L 218.898438 166.496094 L 206.75 185.167969 C 48.007812 181.199219 0.164062 45.132812 2.046875 36.734375 " fill-opacity="1" fill-rule="nonzero"/><path fill="#d0353f" d="M 58.257812 58.738281 C 49.460938 72.609375 39.035156 84.117188 28.3125 92.527344 C 8.6875 64.492188 1.285156 40.136719 2.046875 36.734375 C 2.046875 36.734375 2.320312 33.125 3.960938 30.253906 C 5.855469 27.542969 9.007812 25.757812 9.007812 25.757812 C 11.839844 23.550781 38.402344 19.699219 73.59375 26.21875 C 70.230469 36.867188 65.101562 47.941406 58.257812 58.738281 " fill-opacity="1" fill-rule="nonzero"/><path fill="#6b7276" d="M 85.109375 99.386719 C 98.085938 107.613281 115.269531 103.757812 123.492188 90.789062 C 131.71875 77.8125 127.863281 60.625 114.890625 52.398438 C 101.917969 44.179688 84.730469 48.027344 76.503906 61.003906 C 68.285156 73.980469 72.132812 91.164062 85.109375 99.386719 " fill-opacity="1" fill-rule="nonzero"/><path fill="#7bbbd7" d="M 88.359375 94.253906 C 98.5 100.6875 111.933594 97.675781 118.363281 87.53125 C 124.792969 77.390625 121.78125 63.960938 111.640625 57.53125 C 101.5 51.101562 88.066406 54.113281 81.636719 64.253906 C 75.210938 74.394531 78.21875 87.828125 88.359375 94.253906 " fill-opacity="1" fill-rule="nonzero"/><path fill="#d0353f" d="M 173.253906 110.117188 C 173.253906 110.117188 182.460938 105.765625 191.941406 112.285156 C 201.429688 118.808594 254.96875 175.609375 254.96875 175.609375 C 254.96875 175.609375 255.171875 179.074219 251.722656 180.328125 C 251.722656 180.328125 152.957031 129.089844 173.253906 110.117188 " fill-opacity="1" fill-rule="nonzero"/><path fill="#6a1b1f" d="M 133.148438 161.949219 L 170.40625 171.636719 L 174.324219 189.34375 L 225.535156 214.453125 L 223.351562 217.902344 L 147.570312 203.679688 L 129.820312 167.191406 L 133.148438 161.949219 " fill-opacity="1" fill-rule="nonzero"/><path fill="#551317" d="M 174.324219 189.34375 L 225.535156 214.453125 L 224.636719 215.863281 L 151.914062 196.339844 L 151.53125 196.949219 L 133.148438 161.949219 L 170.40625 171.636719 L 174.324219 189.34375 " fill-opacity="1" fill-rule="nonzero"/></svg>